<?xml version="1.0" encoding="UTF-8" standalone="no"?>
<!-- Generator: Adobe Illustrator 16.0.0, SVG Export Plug-In . SVG Version: 6.00 Build 0)  -->

<svg
   version="1.1"
   id="Layer_1"
   x="0px"
   y="0px"
   width="128px"
   height="128px"
   viewBox="0 0 128 128"
   enable-background="new 0 0 128 128"
   xml:space="preserve"
   sodipodi:docname="qgis2.svg"
   inkscape:version="1.1.1 (c3084ef, 2021-09-22)"
   xmlns:inkscape="http://www.inkscape.org/namespaces/inkscape"
   xmlns:sodipodi="http://sodipodi.sourceforge.net/DTD/sodipodi-0.dtd"
   xmlns="http://www.w3.org/2000/svg"
   xmlns:svg="http://www.w3.org/2000/svg"><defs
   id="defs837" /><sodipodi:namedview
   id="namedview835"
   pagecolor="#ffffff"
   bordercolor="#666666"
   borderopacity="1.0"
   inkscape:pageshadow="2"
   inkscape:pageopacity="0.0"
   inkscape:pagecheckerboard="0"
   showgrid="false"
   inkscape:zoom="5.453125"
   inkscape:cx="64"
   inkscape:cy="64"
   inkscape:window-width="1441"
   inkscape:window-height="852"
   inkscape:window-x="0"
   inkscape:window-y="38"
   inkscape:window-maximized="0"
   inkscape:current-layer="Layer_1" />
<polygon
   points="68.613,69.625 86.891,69.625 71.697,54.625 52.613,54.625 52.613,72.746 68.613,88.548 "
   id="polygon828"
   style="fill:#7c878a;fill-opacity:1" />
<polygon
   points="126.613,109.057 94.488,77.625 76.613,77.625 76.613,96.033 107.143,126.625 126.613,126.625 "
   id="polygon830"
   style="fill:#7c878a;fill-opacity:1" />
<path
   d="M68.923,101.552c-1.165,0.242-1.769,0.157-4.685,0.157c-20.866,0-38.612-17.158-38.612-39.406  c0-22.248,17.551-39.027,38.612-39.027s37.833,16.78,37.833,39.027c0,3.619-0.451,7.099-1.284,10.398L120.1,92.012  c4.979-8.726,7.765-18.869,7.765-29.857c0-34.289-27.363-59.963-64.016-59.963C27.363,2.191,0,27.696,0,62.154  c0,34.625,27.363,60.638,63.848,60.638c9.417,0,16.069-1.469,23.042-3.761L68.923,101.552z"
   id="path832"
   style="fill:#7c878a;fill-opacity:1" />
</svg>
